# AST/ASF file generated using VICON BodyLanguage
# -----------------------------------------------
:version 1.10
:name VICON
:units
  mass 1.0
  length 0.45
  angle deg
:documentation
   .ast/.asf automatically generated from VICON data using
   VICON BodyBuilder and BodyLanguage model FoxedUp or BRILLIANT.MOD
:root
   order TX TY TZ RX RY RZ
   axis XYZ
   position 0 0 0  
   orientation 0 0 0 
:bonedata
  begin
     id 1 
     name lhipjoint
     direction 0.645897 -0.709066 0.282916 
     length 2.50918 
     axis 0 0 0  XYZ
  end
  begin
     id 2 
     name lfemur
     direction 0.34202 -0.939693 0  
     length 6.85725  
     axis 0 0 20  XYZ
    dof rx ry rz
    limits (-160.0 20.0)
           (-70.0 70.0)
           (-60.0 70.0)
  end
  begin
     id 3 
     name ltibia
     direction 0.34202 -0.939693 0   
     length 8.01778   
     axis 0 0 20   XYZ
    dof rx
    limits (-10.0 170.0)
  end
  begin
     id 4 
     name lfoot
     direction 0.0796011 -0.218702 0.972539   
     length 2.13962   
     axis -90 7.62852e-016 20   XYZ
    dof rx rz
    limits (-45.0 90.0)
           (-70.0 20.0)
  end
  begin
     id 5 
     name ltoes
     direction 1.53548e-011 -4.21881e-011 1   
     length 1.07476   
     axis -90 7.62852e-016 20   XYZ
    dof rx
    limits (-90.0 20.0)
  end
  begin
     id 6 
     name rhipjoint
     direction -0.63101 -0.720537 0.287493   
     length 2.46923  
     axis 0 0 0  XYZ 
  end
  begin
     id 7 
     name rfemur
     direction -0.34202 -0.939693 0   
     length 6.81957   
     axis 0 0 -20   XYZ
    dof rx ry rz
    limits (-160.0 20.0)
           (-70.0 70.0)
           (-70.0 60.0)
  end
  begin
     id 8 
     name rtibia
     direction -0.34202 -0.939693 0   
     length 8.15152   
     axis 0 0 -20   XYZ
    dof rx
    limits (-10.0 170.0)
 end
 begin
     id 9 
     name rfoot
     direction -0.105819 -0.290734 0.950934   
     length 2.14588  
     axis -90 -7.62852e-016 -20   XYZ
    dof rx rz
    limits (-45.0 90.0)
           (-20.0 70.0)
  end
  begin
     id 10 
     name rtoes
     direction -1.53512e-011 -4.22005e-011 1   
     length 1.0703   
     axis -90 -7.62852e-016 -20   XYZ
    dof rx
    limits (-90.0 20.0)
  end
  begin
     id 11 
     name lowerback
     direction 0.0114933 0.999236 0.0373542   
     length 1.91711   
     axis 0 0 0   XYZ
    dof rx ry rz
    limits (-20.0 45.0)
           (-30.0 30.0)
           (-30.0 30.0)
  end
  begin
     id 12 
     name upperback
     direction 0.00911529 0.998099 0.0609554   
     length 1.90888   
     axis 0 0 0   XYZ
    dof rx ry rz
    limits (-20.0 45.0)
           (-30.0 30.0)
           (-30.0 30.0)
  end
  begin
     id 13 
     name thorax
     direction 0.00357322 0.99911 0.0420379   
     length 1.90942   
     axis 0 0 0   XYZ
    dof rx ry rz
    limits (-20.0 45.0)
           (-30.0 30.0)
           (-30.0 30.0)
  end
  begin
     id 14 
     name lowerneck
     direction -0.0589311 0.997882 0.0275448   
     length 1.83956   
     axis 0 0 0   XYZ
    dof rx ry rz
    limits (-20.0 45.0)
           (-30.0 30.0)
           (-30.0 30.0)
  end
  begin
     id 15 
     name upperneck
     direction 0.0362633 0.960055 -0.277453   
     length 1.82031   
     axis 0 0 0   XYZ
    dof rx ry rz
    limits (-20.0 45.0)
           (-30.0 30.0)
           (-30.0 30.0)
  end
  begin
     id 16
     name head
     direction 0.0166719 0.995328 -0.0951042  
     length 1.86084  
     axis 0 0 0   XYZ
    dof rx ry rz
    limits (-20.0 45.0)
           (-30.0 30.0)
           (-30.0 30.0)
  end
  begin
     id 17 
     name lclavicle
     direction 0.90319 0.426238 0.0506919  
     length 3.17828  
     axis 0 0 0   XYZ
    dof ry rz
    limits (-20.0 10.0)
           (0.0 20.0)
  end
  begin
     id 18 
     name lhumerus
     direction 1 -4.48953e-011 6.78797e-028   
     length 5.43592   
     axis 180 -30 -90   XYZ
    dof rx ry rz
    limits (-60.0 90.0)
           (-90.0 90.0)
           (-90.0 90.0)
  end
  begin
     id 19
     name lradius
     direction 1 -4.48969e-011 7.02702e-027   
     length 3.2546   
     axis 180 -30 -90   XYZ
    dof rx
    limits (-10.0 170.0)
  end
  begin
     id 20
     name lwrist
     direction 1 -4.48975e-011 1.29807e-026   
     length 1.6273   
     axis -8.50346e-015 90 90   XYZ
    dof ry
    limits (-180.0 0.0)
 end
  begin
     id 21 
     name lhand
     direction 1 -4.48917e-011 2.59615e-026   
     length 0.498244   
     axis -1.65656e-014 90 90   XYZ
    dof rx rz
    limits (-90.0 90.0)
           (-45.0 45.0)
  end
  begin
     id 22 
     name lfingers
     direction 1 -4.48885e-011 5.1923e-026   
     length 0.401697   
     axis -3.31313e-014 90 90   XYZ
    dof rx
    limits (0.0 90.0)
  end
  begin
     id 23
     name lthumb
     direction 0.707107 -6.34946e-011 0.707107   
     length 0.576759   
     axis -90 45 2.85299e-015   XYZ
    dof rx rz
    limits (-45.0 45.0)
           (-45.0 45.0)
  end
  begin
     id 24 
     name rclavicle
     direction -0.908603 0.391432 0.145676   
     length 3.15477  
     axis 0 0 0   XYZ 
    dof ry rz
    limits (-10.0 20.0)
           (-20.0 0.0)
  end
  begin
     id 25 
     name rhumerus
     direction -1 -4.4898e-011 1.02852e-027  
     length 5.3383   
     axis 180 30 90   XYZ
    dof rx ry rz
    limits (-90.0 60.0)
           (-90.0 90.0)
           (-90.0 90.0)
  end
  begin
     id 26 
     name rradius
     direction -1 -4.48968e-011 7.05567e-027   
     length 3.23148   
     axis 180 30 90   XYZ
    dof rx
    limits (-10.0 170.0)
  end
  begin
     id 27 
     name rwrist
     direction -1 -4.48927e-011 1.29807e-026   
     length 1.61574   
     axis -8.50346e-015 -90 -90   XYZ
    dof ry
    limits (-180.0 0.0)
  end
  begin
     id 28
     name rhand
     direction -1 -4.48905e-011 2.59615e-026   
     length 0.463641   
     axis -1.65656e-014 -90 -90   XYZ
    dof rx rz
    limits (-90.0 90.0)
           (-45.0 45.0)
  end
  begin
     id 29
     name rfingers
     direction -1 -4.49167e-011 5.1923e-026   
     length 0.373799   
     axis -3.31313e-014 -90 -90   XYZ
    dof rx
    limits (0.0 90.0)
  end
  begin
     id 30
     name rthumb
     direction -0.707107 -6.34954e-011 0.707107   
     length 0.536703   
     axis -90 -45 -2.85299e-015   XYZ
    dof rx rz
    limits (-45.0 45.0)
           (-45.0 45.0)
  end
:hierarchy
  begin
    root lhipjoint rhipjoint lowerback
    lhipjoint lfemur
    lfemur ltibia
    ltibia lfoot
    lfoot ltoes
    rhipjoint rfemur
    rfemur rtibia
    rtibia rfoot
    rfoot rtoes
    lowerback upperback
    upperback thorax
    thorax lowerneck lclavicle rclavicle
    lowerneck upperneck
    upperneck head
    lclavicle lhumerus
    lhumerus lradius
    lradius lwrist
    lwrist lhand lthumb
    lhand lfingers
    rclavicle rhumerus
    rhumerus rradius
    rradius rwrist
    rwrist rhand rthumb
    rhand rfingers
  end

#!OML:ASF F:\VICON\USERDATA\INSTALL\rory3\rory3.ASF
:FULLY-SPECIFIED
:DEGREES
90
root 4.05313 17.5869 3.81125 19.5949 -12.0114 -4.07181
lowerback -7.83352 -0.642992 6.46242
upperback -12.835 -0.921159 2.75115
thorax -9.38665 -0.953692 -0.637041
lowerneck -7.24406 15.5967 12.0026
upperneck 19.5164 18.5832 5.81824
head 7.84459 10.2206 1.82955
rclavicle 3.598e-014 -1.82882e-014
rhumerus -10.4921 -21.9637 21.5831
rradius 121.226
rwrist -57.2571
rhand -4.79652 -45.5204
rfingers 7.12502
rthumb 20.9889 -74.4047
lclavicle 3.598e-014 -1.82882e-014
lhumerus 34.005 36.0608 -8.39633
lradius 30.6656
lwrist 36.4822
lhand -27.9414 -19.2996
lfingers 7.12502
lthumb -1.32928 10.676
rfemur -5.75567 12.2951 -1.21216
rtibia 9.33786
rfoot 22.2721 -10.5578
rtoes -34.9877
lfemur -23.2001 -2.0813 -22.7864
ltibia 21.2121
lfoot -14.5202 13.1443
ltoes 9.98393
91
root 4.05583 17.5877 3.80734 19.5946 -12.0545 -4.16249
lowerback -7.85203 -0.51585 6.54608
upperback -12.7042 -0.764758 2.64882
thorax -9.21941 -0.88248 -0.799188
lowerneck -7.59954 15.4644 12.0325
upperneck 19.5766 18.3537 5.74674
head 7.93023 10.1075 1.81422
rclavicle -3.19049e-014 6.36111e-015
rhumerus -10.887 -22.02 21.7671
rradius 121.239
rwrist -57.2083
rhand -4.67548 -45.4057
rfingers 7.12502
rthumb 21.1052 -74.2771
lclavicle -3.19049e-014 6.36111e-015
lhumerus 34.4937 36.4298 -7.99643
lradius 30.6036
lwrist 36.2491
lhand -28.2532 -19.3359
lfingers 7.12502
lthumb -1.63048 10.6376
rfemur -5.81252 12.3669 -1.15174
rtibia 9.36173
rfoot 22.2499 -10.533
rtoes -34.9315
lfemur -23.2149 -1.95036 -22.7333
ltibia 21.2643
lfoot -14.5053 13.1177
ltoes 9.62542
92
root 4.0589 17.5864 3.80482 19.5494 -12.0382 -4.19984
lowerback -7.8892 -0.426731 6.59985
upperback -12.5123 -0.663004 2.54608
thorax -8.97321 -0.832092 -0.946722
lowerneck -7.96772 15.324 12.1201
upperneck 19.6025 18.1275 5.54562
head 8.02475 9.98666 1.75173
rclavicle -4.56211e-014 1.47101e-014
rhumerus -11.4067 -22.1165 22.0467
rradius 121.381
rwrist -57.2643
rhand -4.29953 -45.3171
rfingers 7.12502
rthumb 21.4663 -74.1478
lclavicle -4.56211e-014 1.47101e-014
lhumerus 34.992 36.9244 -7.57216
lradius 30.4777
lwrist 36.0084
lhand -28.8283 -20.0197
lfingers 7.12502
lthumb -2.1859 9.9488
rfemur -5.75524 12.3814 -1.11644
rtibia 9.34297
rfoot 22.2329 -10.5677
rtoes -34.9512
lfemur -23.2001 -1.96305 -22.6914
ltibia 21.3217
lfoot -14.6152 13.0653
ltoes 9.92559
93
root 4.06125 17.586 3.80575 19.4748 -11.9887 -4.17659
lowerback -7.9819 -0.426694 6.60887
upperback -12.3808 -0.678278 2.52262
thorax -8.77035 -0.834037 -0.982922
lowerneck -8.22452 15.2545 11.9864
upperneck 19.9145 17.9943 5.61202
head 8.15133 9.92877 1.81285
rclavicle -1.69961e-014 3.22031e-014
rhumerus -11.52 -22.1539 22.0446
rradius 121.445
rwrist -57.2444
rhand -3.99844 -45.1542
rfingers 7.12502
rthumb 21.7555 -73.9516
lclavicle -1.69961e-014 3.22031e-014
lhumerus 35.3072 37.3238 -7.16245
lradius 30.3285
lwrist 35.5653
lhand -29.063 -20.5483
lfingers 7.12502
lthumb -2.41251 9.41777
rfemur -5.70758 12.3551 -1.11144
rtibia 9.45144
rfoot 22.053 -10.5961
rtoes -35.3244
lfemur -23.1277 -1.9358 -22.732
ltibia 21.325
lfoot -14.6179 13.0045
ltoes 9.78983
94
root 4.06249 17.5858 3.80138 19.3981 -11.9591 -4.09094
lowerback -7.9473 -0.420525 6.50138
upperback -12.3761 -0.663951 2.52139
thorax -8.77946 -0.81721 -0.924613
lowerneck -8.18877 15.1312 11.8558
upperneck 20.1233 17.8544 5.58205
head 8.20179 9.85786 1.81115
rclavicle -4.25399e-014 1.03368e-014
rhumerus -11.4357 -22.1071 21.9999
rradius 121.403
rwrist -57.2244
rhand -3.57554 -45.0268
rfingers 7.12502
rthumb 22.1615 -73.7765
lclavicle -4.25399e-014 1.03368e-014
lhumerus 35.7926 37.5735 -6.44141
lradius 30.1448
lwrist 34.9452
lhand -29.0026 -20.7917
lfingers 7.12502
lthumb -2.35422 9.17509
rfemur -5.74171 12.3236 -1.17106
rtibia 9.63603
rfoot 21.841 -10.5856
rtoes -35.8042
lfemur -23.0727 -1.86413 -22.8466
ltibia 21.2871
lfoot -14.5142 12.9497
ltoes 9.54974
95
root 4.06459 17.5849 3.78796 19.3596 -11.9042 -3.92463
lowerback -7.81666 -0.372956 6.34601
upperback -12.536 -0.578263 2.49725
thorax -9.02675 -0.770258 -0.857474
lowerneck -7.65866 14.8798 11.665
upperneck 20.1003 17.6434 5.46983
head 8.08706 9.73833 1.72534
rclavicle -8.84592e-015 -6.79844e-014
rhumerus -11.386 -21.9858 22.1351
rradius 121.345
rwrist -57.3355
rhand -2.98835 -45.055
rfingers 7.12502
rthumb 22.7251 -73.7367
lclavicle -8.84592e-015 -6.79844e-014
lhumerus 36.1868 37.4143 -5.78764
lradius 30.0663
lwrist 34.53
lhand -28.7897 -20.9255
lfingers 7.12502
lthumb -2.14862 9.04345
rfemur -5.81469 12.2238 -1.32286
rtibia 9.78156
rfoot 21.7611 -10.607
rtoes -35.9861
lfemur -23.1214 -1.75193 -23.0385
ltibia 21.2537
lfoot -14.4563 12.7439
ltoes 9.53193
96
root 4.06689 17.5845 3.77629 19.3317 -11.8533 -3.79476
lowerback -7.62576 -0.537748 6.13841
upperback -12.4171 -0.78478 2.48772
thorax -9.00487 -0.852039 -0.752495
lowerneck -8.32931 14.957 11.8382
upperneck 20.5549 17.6205 5.42319
head 8.38092 9.74243 1.77517
rclavicle 5.78463e-014 -1.82882e-014
rhumerus -11.1474 -22.48 21.5426
rradius 121.215
rwrist -57.1381
rhand -2.64228 -45.1138
rfingers 7.12502
rthumb 23.0572 -73.7544
lclavicle 5.78463e-014 -1.82882e-014
lhumerus 35.5901 37.5505 -6.52593
lradius 30.2556
lwrist 34.6826
lhand -28.4615 -20.6291
lfingers 7.12502
lthumb -1.83164 9.34283
rfemur -5.83864 12.1388 -1.43268
rtibia 9.8236
rfoot 21.786 -10.6263
rtoes -35.7851
lfemur -23.1801 -1.62802 -23.1914
ltibia 21.2595
lfoot -14.5153 12.4898
ltoes 9.65557
